<?xml version="1.0" encoding="utf-8"?>
<!-- Generator: Adobe Illustrator 22.1.0, SVG Export Plug-In . SVG Version: 6.00 Build 0)  -->
<svg version="1.1" id="Layer_1" xmlns="http://www.w3.org/2000/svg" xmlns:xlink="http://www.w3.org/1999/xlink" x="0px" y="0px"
	 viewBox="0 0 1366 768" style="enable-background:new 0 0 1366 768;" xml:space="preserve">
<style type="text/css">
	.st0{fill:#FFFFFF;}
	.st1{fill:#606161;}
	.st2{fill:#CCC9C9;}
	.st3{fill:#8024FA;}
	.st4{fill:#3401FE;}
	.st5{fill:#9A5AFF;}
	.st6{fill:#F5E4F9;}
	.st7{fill:#EF92FD;}
	.st8{fill:#F4D0FC;}
	.st9{fill:#FBFB8B;}
	.st10{fill:#FBD685;}
	.st11{fill:#F6E9D9;}
	.st12{fill:#FA8380;}
	.st13{fill:#F92B6F;}
	.st14{fill:#F45DEB;}
	.st15{fill:#CFD1FF;}
	.st16{fill:#A4A5F5;}
	.st17{fill:#C3CDF0;}
	.st18{fill:#DFE5F4;}
	.st19{fill:#D3DBF2;}
	.st20{fill:#CAAAF9;}
	.st21{fill:#EADCFF;}
	.st22{fill:#EDEEFC;}
	.st23{fill:#877BFF;}
	.st24{fill:#5336FF;}
	.st25{fill:#914EF9;}
	.st26{fill:#EEEFFF;}
	.st27{fill:#A6A4FF;}
</style>
<polygon class="st3" points="906,369.7 795.8,433.2 685.6,369.7 795.8,305.6 "/>
<polygon class="st3" points="906,496.7 795.8,560.2 795.8,433.2 906,369.7 "/>
<polygon class="st25" points="685.6,496.7 795.8,560.2 795.8,433.2 685.6,369.7 "/>
<g>
	<polygon class="st3" points="685.7,433.1 630.6,464.9 575.5,433.1 630.6,401.1 	"/>
	<polygon class="st3" points="685.7,496.6 630.6,528.4 630.6,464.9 685.7,433.1 	"/>
</g>
<g>
	<polygon class="st4" points="685.7,369.4 630.6,401.2 575.5,369.4 630.6,337.4 	"/>
	<polygon class="st3" points="685.7,432.9 630.6,464.7 630.6,401.2 685.7,369.4 	"/>
	<polygon class="st5" points="575.5,432.9 630.6,464.7 630.6,401.2 575.5,369.4 	"/>
</g>
<g>
	<polygon class="st6" points="686.7,305.7 631.6,337.5 576.5,305.7 631.6,273.7 	"/>
	<polygon class="st7" points="686.7,369.2 631.6,401 631.6,337.5 686.7,305.7 	"/>
	<polygon class="st8" points="576.5,369.2 631.6,401 631.6,337.5 576.5,305.7 	"/>
</g>
<g>
	<polygon class="st12" points="906,242.6 795.8,306.1 685.6,242.6 795.8,178.4 	"/>
	<polygon class="st13" points="906,369.6 795.8,433.1 795.8,306.1 906,242.6 	"/>
	<polygon class="st14" points="685.6,369.6 795.8,433.1 795.8,306.1 685.6,242.6 	"/>
</g>
<polygon class="st26" points="520.7,274.1 410.5,337.6 300.3,274.1 410.5,210 "/>
<polygon class="st27" points="520.7,401.1 410.5,464.6 410.5,337.6 520.7,274.1 "/>
<polygon class="st15" points="300.3,401.1 410.5,464.6 410.5,337.6 300.3,274.1 "/>
<g>
	<polygon class="st4" points="685.7,306.7 630.6,338.5 575.5,306.7 630.6,274.7 	"/>
	<polygon class="st3" points="685.7,370.2 630.6,402 630.6,338.5 685.7,306.7 	"/>
	<polygon class="st5" points="575.5,370.2 630.6,402 630.6,338.5 575.5,306.7 	"/>
</g>
<g>
	<polygon class="st6" points="685.7,242 630.6,273.8 575.5,242 630.6,210 	"/>
	<polygon class="st7" points="685.7,305.5 630.6,337.3 630.6,273.8 685.7,242 	"/>
	<polygon class="st8" points="575.5,305.5 630.6,337.3 630.6,273.8 575.5,242 	"/>
</g>
<polygon class="st23" points="1126.3,496.5 1016.1,560 905.9,496.5 1016.1,432.4 "/>
<polygon class="st3" points="1126.3,623.5 1016.1,687 1016.1,560 1126.3,496.5 "/>
<polygon class="st3" points="905.9,623.5 1016.1,687 1016.1,560 905.9,496.5 "/>
<g>
	<polygon class="st23" points="630.8,337.9 575.7,369.6 520.6,337.9 575.7,305.8 	"/>
	<polygon class="st24" points="630.8,401.4 575.7,433.1 575.7,369.6 630.8,337.9 	"/>
	<polygon class="st24" points="520.6,401.4 575.7,433.1 575.7,369.6 520.6,337.9 	"/>
</g>
<g>
	<polygon class="st23" points="630.6,464.3 520.4,527.8 410.2,464.3 520.4,400.1 	"/>
	<polygon class="st24" points="630.6,591.3 520.4,654.8 520.4,527.8 630.6,464.3 	"/>
	<polygon class="st24" points="410.2,591.3 520.4,654.8 520.4,527.8 410.2,464.3 	"/>
</g>
<polygon class="st9" points="905.9,115.6 795.7,179.1 685.5,115.6 795.7,51.5 "/>
<polygon class="st10" points="905.9,242.6 795.7,306.1 795.7,179.1 905.9,115.6 "/>
<polygon class="st11" points="685.5,242.6 795.7,306.1 795.7,179.1 685.5,115.6 "/>
</svg>
