<?xml version="1.0" encoding="utf-8"?>
<!-- Generator: Adobe Illustrator 22.1.0, SVG Export Plug-In . SVG Version: 6.00 Build 0)  -->
<svg version="1.1" xmlns="http://www.w3.org/2000/svg" xmlns:xlink="http://www.w3.org/1999/xlink" x="0px" y="0px"
	 viewBox="0 0 272 311" style="enable-background:new 0 0 272 311;" xml:space="preserve">
<style type="text/css">
	.st0{fill:none;}
	.st1{fill:#606060;}
	.st2{fill:#FFFFFF;}
	.st3{fill:#A4A5F5;}
	.st4{fill:#7D83F4;}
	.st5{fill:#5336FF;}
	.st6{fill:#CCC9C9;}
</style>
<g id="Layer_3">
</g>
<g id="Layer_1">
	
		<rect x="131.5" y="-131" transform="matrix(-1.836970e-16 1 -1 -1.836970e-16 141.5 -131.5)" class="st0" width="10" height="272"/>
	<g>
		<path class="st2" d="M136,301.3L9.8,228.4V82.6L136,9.7l126.2,72.9v145.8L136,301.3z M64.5,196.8L136,238l71.5-41.3v-82.5L136,73
			l-71.5,41.3V196.8z"/>
		<path class="st2" d="M136,301.3L9.8,228.4V82.6L136,9.7l126.2,72.9v145.8L136,301.3z M64.5,196.8L136,238l71.5-41.3v-82.5L136,73
			l-71.5,41.3V196.8z"/>
		<path class="st3" d="M136,301.3L9.8,228.4V82.6L136,9.7l126.2,72.9v145.8L136,301.3z M64.5,196.8L136,238l71.5-41.3v-82.5L136,73
			l-71.5,41.3V196.8z"/>
		<polygon class="st4" points="136,9.7 262.2,82.6 207.5,114.2 136,73 64.5,114.2 9.8,82.6 		"/>
		<polygon class="st5" points="262.2,82.6 207.5,114.2 207.5,196.8 136,238 136,301.3 262.2,228.4 		"/>
	</g>
	<rect y="-0.5" class="st0" width="10" height="311"/>
	<rect x="131.5" y="170" transform="matrix(-1.836970e-16 1 -1 -1.836970e-16 442.5 169.5)" class="st0" width="10" height="272"/>
	<rect x="262" y="-0.5" transform="matrix(-1 -1.224647e-16 1.224647e-16 -1 534 311)" class="st0" width="10" height="312"/>
</g>
<g id="Layer_2">
</g>
</svg>
