<svg xmlns="http://www.w3.org/2000/svg" xmlns:xlink="http://www.w3.org/1999/xlink" width="228" height="74" viewBox="0 0 228 74">
  <defs>
    <clipPath id="clip-path">
      <rect id="Rectangle_1486" data-name="Rectangle 1486" width="228" height="74" fill="#fff" stroke="#707070" stroke-width="1"/>
    </clipPath>
    <clipPath id="clip-Artboard_2">
      <rect width="228" height="74"/>
    </clipPath>
  </defs>
  <g id="Artboard_2" data-name="Artboard – 2" clip-path="url(#clip-Artboard_2)">
    <g id="Mask_Group_522" data-name="Mask Group 522" clip-path="url(#clip-path)">
      <g id="logo-full" transform="translate(0 6.77)">
        <path id="Path_61832" data-name="Path 61832" d="M122.551,57.8l-1.543,3.674a11.217,11.217,0,0,0-4.355-1.1,6.36,6.36,0,0,0-3.305.966,10.615,10.615,0,0,0-2.978,2.768,9.88,9.88,0,0,0-1.358,2.02v16.51H105.2V57.118H109v5.17q3.061-5.781,7.936-5.781A12.888,12.888,0,0,1,122.551,57.8Z" transform="translate(-32.73 -35.133)" fill="#5969f6"/>
        <path id="Path_61833" data-name="Path 61833" d="M150.472,70H132.958a10.344,10.344,0,0,0,2.511,7.152,7.937,7.937,0,0,0,6.159,2.816,22.349,22.349,0,0,0,7.177-1.244l.661,3.061a19.012,19.012,0,0,1-7.88,1.52,12.068,12.068,0,0,1-9.159-3.65q-3.477-3.65-3.48-9.848,0-6.074,3.123-9.688a10.168,10.168,0,0,1,8.073-3.612,9.437,9.437,0,0,1,7.372,3.355,13.016,13.016,0,0,1,2.963,8.941Zm-4.164-3.11a7.2,7.2,0,0,0-1.866-5.035,5.541,5.541,0,0,0-4.164-2.045,6.634,6.634,0,0,0-4.91,1.96,7.753,7.753,0,0,0-2.167,5.12Z" transform="translate(-32.73 -35.133)" fill="#5969f6"/>
        <path id="Path_61834" data-name="Path 61834" d="M180.118,82.642H176.3V66.279a8.674,8.674,0,0,0-1.091-4.935,3.9,3.9,0,0,0-3.417-1.53q-3.5,0-7.519,4.355v18.47h-3.822V48.081h3.822V60.867q4.114-4.355,8.672-4.355,7.177,0,7.177,8.672Z" transform="translate(-32.73 -35.133)" fill="#5969f6"/>
        <path id="Path_61835" data-name="Path 61835" d="M230.708,57.118l-9.673,25.524h-3.48l-9.626-25.524h4.164l7.227,20.307,7.224-20.307Z" transform="translate(-32.73 -35.133)" fill="#5969f6"/>
        <path id="Path_61836" data-name="Path 61836" d="M260.722,70H243.208a10.344,10.344,0,0,0,2.511,7.152,7.939,7.939,0,0,0,6.161,2.816,22.35,22.35,0,0,0,7.177-1.244l.661,3.061a19.022,19.022,0,0,1-7.88,1.52,12.075,12.075,0,0,1-9.161-3.65q-3.48-3.65-3.477-9.848,0-6.074,3.123-9.688a10.166,10.166,0,0,1,8.071-3.612,9.439,9.439,0,0,1,7.374,3.355,13.015,13.015,0,0,1,2.963,8.941Zm-4.164-3.11a7.2,7.2,0,0,0-1.866-5.035,5.541,5.541,0,0,0-4.164-2.045,6.63,6.63,0,0,0-4.91,1.96,7.775,7.775,0,0,0-2.169,5.12Z" transform="translate(-32.73 -35.133)" fill="#5969f6"/>
        <rect id="Rectangle_1485" data-name="Rectangle 1485" width="3.751" height="25.524" transform="translate(160.568 21.984)" fill="#5969f6"/>
        <path id="Path_61837" data-name="Path 61837" d="M58.928,95.594,32.749,80.483,32.73,50.271,58.889,35.133l26.179,15.1.019,30.233ZM44.087,73.924,58.92,82.478l14.82-8.572L73.729,56.8,58.891,48.243,44.077,56.817Z" transform="translate(-32.73 -35.133)" fill="#fff"/>
        <path id="Path_61838" data-name="Path 61838" d="M58.928,95.594,32.749,80.483,32.73,50.271,58.889,35.133l26.179,15.1.019,30.233ZM44.087,73.924,58.92,82.478l14.82-8.572L73.729,56.8,58.891,48.243,44.077,56.817Z" transform="translate(-32.73 -35.133)" fill="#fff"/>
        <path id="Path_61839" data-name="Path 61839" d="M58.928,95.594,32.749,80.483,32.73,50.271,58.889,35.133l26.179,15.1.019,30.233ZM44.087,73.924,58.92,82.478l14.82-8.572L73.729,56.8,58.891,48.243,44.077,56.817Z" transform="translate(-32.73 -35.133)" fill="#a4a5f5"/>
        <path id="Path_61840" data-name="Path 61840" d="M58.889,35.137l26.179,15.1L73.729,56.8,58.9,48.243l-14.82,8.574L32.73,50.271Z" transform="translate(-32.73 -35.133)" fill="#7d83f4"/>
        <path id="Path_61841" data-name="Path 61841" d="M85.068,50.237,73.729,56.8l.01,17.107L58.92,82.478l.008,13.105L85.087,80.45Z" transform="translate(-32.73 -35.133)" fill="#5336ff"/>
      </g>
    </g>
  </g>
</svg>
